<svg xmlns:xlink="http://www.w3.org/1999/xlink" xmlns="http://www.w3.org/2000/svg" width="148" height="211" viewBox="0 0 148 211" fill="none">
<path d="M144.044 177.886H3.85414C3.3828 177.884 2.91561 177.974 2.47951 178.153C2.04341 178.332 1.64701 178.596 1.31325 178.928C0.979488 179.261 0.714994 179.657 0.534926 180.092C0.354858 180.528 0.262847 180.995 0.264174 181.466V204.226C0.264173 205.077 0.431809 205.919 0.757583 206.705C1.08336 207.49 1.56088 208.204 2.16273 208.805C2.76459 209.406 3.47902 209.882 4.26515 210.207C5.05128 210.531 5.89366 210.698 6.74415 210.696H141.104C141.957 210.702 142.803 210.538 143.592 210.215C144.382 209.893 145.1 209.417 145.705 208.815C146.31 208.214 146.79 207.499 147.118 206.712C147.445 205.924 147.614 205.079 147.614 204.226V181.466C147.614 180.519 147.238 179.609 146.569 178.938C145.9 178.267 144.992 177.889 144.044 177.886ZM115.854 199.366C115.853 199.789 115.768 200.208 115.605 200.598C115.442 200.988 115.204 201.342 114.904 201.64C114.604 201.938 114.248 202.174 113.857 202.335C113.466 202.496 113.047 202.578 112.624 202.576H35.3041C34.4492 202.579 33.6281 202.243 33.0208 201.641C32.4134 201.039 32.0694 200.221 32.0641 199.366C32.0667 198.943 32.1527 198.525 32.3169 198.136C32.4812 197.746 32.7205 197.392 33.0214 197.095C33.3222 196.798 33.6787 196.563 34.0703 196.404C34.462 196.244 34.8812 196.164 35.3041 196.166H112.624C113.476 196.164 114.295 196.499 114.9 197.099C115.506 197.699 115.849 198.514 115.854 199.366Z" fill="white"/>
<path d="M129.114 154.596C129.114 155.783 128.762 156.943 128.103 157.93C127.444 158.917 126.507 159.686 125.41 160.14C124.314 160.594 123.108 160.713 121.944 160.481C120.78 160.25 119.711 159.678 118.872 158.839C118.033 158 117.461 156.931 117.23 155.767C116.998 154.603 117.117 153.397 117.571 152.3C118.025 151.204 118.794 150.267 119.781 149.608C120.768 148.948 121.928 148.596 123.114 148.596C124.706 148.596 126.232 149.229 127.357 150.354C128.482 151.479 129.114 153.005 129.114 154.596Z" fill="white"/>
<path d="M106.994 154.596C106.996 155.511 106.727 156.406 106.22 157.167C105.713 157.928 104.992 158.522 104.147 158.873C103.302 159.224 102.373 159.316 101.475 159.138C100.578 158.96 99.7543 158.52 99.1076 157.873C98.4608 157.226 98.0206 156.402 97.8427 155.505C97.6647 154.608 97.7571 153.678 98.108 152.834C98.459 151.989 99.0526 151.268 99.8139 150.761C100.575 150.254 101.47 149.984 102.384 149.986C103.607 149.986 104.78 150.472 105.644 151.337C106.509 152.201 106.994 153.374 106.994 154.596Z" fill="white"/>
<path d="M86.2244 154.596C86.2264 155.51 85.9572 156.405 85.4507 157.166C84.9443 157.927 84.2233 158.521 83.3793 158.872C82.5353 159.223 81.6061 159.316 80.7093 159.139C79.8124 158.962 78.9882 158.522 78.3411 157.877C77.694 157.231 77.253 156.408 77.0739 155.511C76.8948 154.615 76.9857 153.685 77.3351 152.841C77.6845 151.996 78.2767 151.274 79.0366 150.766C79.7966 150.258 80.6902 149.986 81.6044 149.986C82.828 149.986 84.0016 150.472 84.8677 151.336C85.7338 152.2 86.2217 153.373 86.2244 154.596Z" fill="white"/>
<path d="M65.4544 154.596C65.4564 155.51 65.1871 156.405 64.6807 157.166C64.1742 157.927 63.4533 158.521 62.6093 158.872C61.7653 159.223 60.8361 159.316 59.9392 159.139C59.0424 158.962 58.2182 158.522 57.5711 157.877C56.924 157.231 56.4829 156.408 56.3039 155.511C56.1248 154.615 56.2157 153.685 56.5651 152.841C56.9145 151.996 57.5067 151.274 58.2666 150.766C59.0266 150.258 59.9202 149.986 60.8344 149.986C62.0579 149.986 63.2316 150.472 64.0977 151.336C64.9638 152.2 65.4517 153.373 65.4544 154.596Z" fill="white"/>
<path d="M0.254395 136.906V172.296C0.254395 173.065 0.559904 173.803 1.10376 174.347C1.64762 174.891 2.38529 175.196 3.15442 175.196H144.684C145.453 175.196 146.191 174.891 146.735 174.347C147.279 173.803 147.584 173.065 147.584 172.296V136.906C147.584 136.137 147.279 135.4 146.735 134.856C146.191 134.312 145.453 134.006 144.684 134.006H3.15442C2.38529 134.006 1.64762 134.312 1.10376 134.856C0.559904 135.4 0.254395 136.137 0.254395 136.906ZM138.514 166.126H9.33435V143.076H138.514V166.126Z" fill="white"/>
<path d="M129.114 110.167C129.114 111.353 128.762 112.513 128.103 113.5C127.444 114.487 126.507 115.256 125.41 115.71C124.314 116.164 123.108 116.283 121.944 116.051C120.78 115.82 119.711 115.248 118.872 114.409C118.033 113.57 117.461 112.501 117.23 111.337C116.998 110.173 117.117 108.967 117.571 107.87C118.025 106.774 118.794 105.837 119.781 105.178C120.768 104.518 121.928 104.167 123.114 104.167C124.706 104.167 126.232 104.799 127.357 105.924C128.482 107.049 129.114 108.575 129.114 110.167Z" fill="white"/>
<path d="M106.994 110.166C106.994 111.081 106.723 111.974 106.215 112.734C105.707 113.494 104.985 114.086 104.14 114.436C103.295 114.785 102.366 114.876 101.469 114.697C100.573 114.518 99.7498 114.077 99.104 113.43C98.4583 112.783 98.0191 111.958 97.842 111.062C97.6648 110.165 97.7577 109.235 98.1089 108.391C98.4601 107.547 99.0539 106.827 99.815 106.32C100.576 105.814 101.47 105.544 102.384 105.546C102.991 105.545 103.592 105.664 104.153 105.896C104.713 106.127 105.222 106.468 105.651 106.897C106.079 107.327 106.418 107.837 106.649 108.398C106.88 108.959 106.997 109.56 106.994 110.166Z" fill="white"/>
<path d="M86.2244 110.166C86.2244 111.08 85.9535 111.973 85.4458 112.733C84.9382 113.493 84.2165 114.085 83.3723 114.435C82.5281 114.784 81.5992 114.876 80.703 114.698C79.8068 114.519 78.9837 114.079 78.3375 113.433C77.6914 112.787 77.2514 111.964 77.0731 111.068C76.8949 110.172 76.9864 109.243 77.3361 108.398C77.6858 107.554 78.2779 106.833 79.0376 106.325C79.7974 105.817 80.6906 105.546 81.6044 105.546C82.2115 105.545 82.8128 105.664 83.3739 105.895C83.935 106.127 84.4449 106.467 84.8742 106.897C85.3034 107.326 85.6437 107.836 85.8754 108.397C86.1071 108.958 86.2257 109.559 86.2244 110.166Z" fill="white"/>
<path d="M65.4544 110.166C65.4544 111.08 65.1835 111.973 64.6758 112.733C64.1681 113.493 63.4466 114.085 62.6024 114.435C61.7582 114.784 60.8293 114.876 59.9331 114.698C59.0369 114.519 58.2136 114.079 57.5675 113.433C56.9214 112.787 56.4814 111.964 56.3031 111.068C56.1249 110.172 56.2164 109.243 56.5661 108.398C56.9157 107.554 57.5078 106.833 58.2676 106.325C59.0274 105.817 59.9206 105.546 60.8344 105.546C61.4414 105.545 62.0428 105.664 62.6039 105.895C63.165 106.127 63.6749 106.467 64.1041 106.897C64.5334 107.326 64.8737 107.836 65.1054 108.397C65.3371 108.958 65.4557 109.559 65.4544 110.166Z" fill="white"/>
<path d="M0.254395 92.4664V127.856C0.254395 128.626 0.559904 129.363 1.10376 129.907C1.64762 130.451 2.38529 130.756 3.15442 130.756H144.684C145.453 130.756 146.191 130.451 146.735 129.907C147.279 129.363 147.584 128.626 147.584 127.856V92.4664C147.584 91.6973 147.279 90.9597 146.735 90.4158C146.191 89.8719 145.453 89.5664 144.684 89.5664H3.15442C2.38529 89.5664 1.64762 89.8719 1.10376 90.4158C0.559904 90.9597 0.254395 91.6973 0.254395 92.4664ZM138.514 121.686H9.33435V98.6864H138.514V121.686Z" fill="white"/>
<path d="M129.114 65.7263C129.114 66.913 128.762 68.0731 128.103 69.0598C127.444 70.0464 126.507 70.8155 125.41 71.2696C124.314 71.7237 123.108 71.8425 121.944 71.611C120.78 71.3795 119.711 70.8081 118.872 69.969C118.033 69.1298 117.461 68.0608 117.23 66.8969C116.998 65.733 117.117 64.5266 117.571 63.4302C118.025 62.3339 118.794 61.3968 119.781 60.7375C120.768 60.0782 121.928 59.7263 123.114 59.7263C124.706 59.7263 126.232 60.3585 127.357 61.4837C128.482 62.6089 129.114 64.135 129.114 65.7263Z" fill="white"/>
<path d="M106.994 65.7265C106.994 66.6406 106.723 67.5343 106.215 68.2942C105.707 69.0542 104.985 69.6464 104.14 69.9957C103.295 70.3451 102.366 70.436 101.469 70.2569C100.573 70.0779 99.7498 69.6368 99.104 68.9897C98.4583 68.3426 98.0191 67.5185 97.842 66.6216C97.6648 65.7248 97.7577 64.7955 98.1089 63.9515C98.4601 63.1075 99.0539 62.3866 99.815 61.8802C100.576 61.3738 101.47 61.1045 102.384 61.1065C102.991 61.1065 103.591 61.226 104.151 61.4583C104.711 61.6906 105.22 62.0311 105.648 62.4602C106.076 62.8894 106.415 63.3987 106.646 63.9592C106.877 64.5197 106.996 65.1202 106.994 65.7265Z" fill="white"/>
<path d="M86.2244 65.7264C86.2244 66.6402 85.9535 67.5334 85.4458 68.2932C84.9382 69.0529 84.2165 69.6451 83.3723 69.9948C82.5281 70.3445 81.5992 70.436 80.703 70.2577C79.8068 70.0794 78.9837 69.6394 78.3375 68.9933C77.6914 68.3472 77.2514 67.524 77.0731 66.6278C76.8949 65.7316 76.9864 64.8026 77.3361 63.9584C77.6858 63.1142 78.2779 62.3927 79.0376 61.8851C79.7974 61.3774 80.6906 61.1064 81.6044 61.1064C82.8297 61.1064 84.0048 61.5932 84.8712 62.4596C85.7377 63.326 86.2244 64.5011 86.2244 65.7264Z" fill="white"/>
<path d="M65.4544 65.7264C65.4544 66.6402 65.1835 67.5334 64.6758 68.2932C64.1681 69.0529 63.4466 69.6451 62.6024 69.9948C61.7582 70.3445 60.8293 70.436 59.9331 70.2577C59.0369 70.0794 58.2136 69.6394 57.5675 68.9933C56.9214 68.3472 56.4814 67.524 56.3031 66.6278C56.1249 65.7316 56.2164 64.8026 56.5661 63.9584C56.9157 63.1142 57.5078 62.3927 58.2676 61.8851C59.0274 61.3774 59.9206 61.1064 60.8344 61.1064C62.0597 61.1064 63.2348 61.5932 64.1012 62.4596C64.9676 63.326 65.4544 64.5011 65.4544 65.7264Z" fill="white"/>
<path d="M0.254395 48.0365V83.4165C0.254395 84.1856 0.559904 84.9232 1.10376 85.4671C1.64762 86.011 2.38529 86.3165 3.15442 86.3165H144.684C145.453 86.3165 146.191 86.011 146.735 85.4671C147.279 84.9232 147.584 84.1856 147.584 83.4165V48.0365C147.584 47.2673 147.279 46.5297 146.735 45.9859C146.191 45.442 145.453 45.1365 144.684 45.1365H3.15442C2.38529 45.1365 1.64762 45.442 1.10376 45.9859C0.559904 46.5297 0.254395 47.2673 0.254395 48.0365ZM138.514 77.2465H9.33435V54.2465H138.514V77.2465Z" fill="white"/>
<path d="M129.114 21.2864C129.114 22.4731 128.762 23.6331 128.103 24.6198C127.444 25.6065 126.507 26.3755 125.41 26.8297C124.314 27.2838 123.108 27.4026 121.944 27.1711C120.78 26.9396 119.711 26.3681 118.872 25.529C118.033 24.6899 117.461 23.6208 117.23 22.4569C116.998 21.2931 117.117 20.0867 117.571 18.9903C118.025 17.8939 118.794 16.9569 119.781 16.2976C120.768 15.6383 121.928 15.2864 123.114 15.2864C124.706 15.2864 126.232 15.9185 127.357 17.0437C128.482 18.1689 129.114 19.6951 129.114 21.2864Z" fill="white"/>
<path d="M106.994 21.2865C106.996 22.2011 106.727 23.0957 106.22 23.857C105.713 24.6183 104.992 25.212 104.147 25.5629C103.302 25.9138 102.373 26.0062 101.475 25.8282C100.578 25.6503 99.7543 25.2101 99.1076 24.5633C98.4608 23.9166 98.0206 23.0925 97.8427 22.1954C97.6647 21.2983 97.7571 20.3685 98.108 19.5239C98.459 18.6793 99.0526 17.9579 99.8139 17.451C100.575 16.9441 101.47 16.6745 102.384 16.6765C102.99 16.6765 103.589 16.7958 104.149 17.0274C104.708 17.2591 105.216 17.5987 105.644 18.0267C106.072 18.4548 106.412 18.963 106.643 19.5223C106.875 20.0817 106.994 20.6811 106.994 21.2865Z" fill="white"/>
<path d="M86.2244 21.2865C86.2264 22.2007 85.9572 23.0949 85.4507 23.856C84.9443 24.617 84.2233 25.2107 83.3793 25.562C82.5353 25.9132 81.6061 26.0061 80.7093 25.8289C79.8124 25.6518 78.9882 25.2126 78.3411 24.5669C77.694 23.9212 77.253 23.098 77.0739 22.2015C76.8948 21.305 76.9857 20.3756 77.3351 19.5308C77.6845 18.686 78.2767 17.9639 79.0366 17.4558C79.7966 16.9477 80.6902 16.6765 81.6044 16.6765C82.828 16.6765 84.0016 17.1619 84.8677 18.0261C85.7338 18.8904 86.2217 20.0629 86.2244 21.2865Z" fill="white"/>
<path d="M65.4544 21.2865C65.4564 22.2007 65.1871 23.0949 64.6807 23.856C64.1742 24.617 63.4533 25.2107 62.6093 25.562C61.7653 25.9132 60.8361 26.0061 59.9392 25.8289C59.0424 25.6518 58.2182 25.2126 57.5711 24.5669C56.924 23.9212 56.4829 23.098 56.3039 22.2015C56.1248 21.305 56.2157 20.3756 56.5651 19.5308C56.9145 18.686 57.5067 17.9639 58.2666 17.4558C59.0266 16.9477 59.9202 16.6765 60.8344 16.6765C62.0579 16.6765 63.2316 17.1619 64.0977 18.0261C64.9638 18.8904 65.4517 20.0629 65.4544 21.2865Z" fill="white"/>
<path d="M0.254395 3.59628V38.9863C0.254395 39.7554 0.559904 40.493 1.10376 41.0369C1.64762 41.5808 2.38529 41.8863 3.15442 41.8863H144.684C145.453 41.8863 146.191 41.5808 146.735 41.0369C147.279 40.493 147.584 39.7554 147.584 38.9863V3.59628C147.584 2.82716 147.279 2.08954 146.735 1.54568C146.191 1.00183 145.453 0.696289 144.684 0.696289H3.15442C2.38529 0.696289 1.64762 1.00183 1.10376 1.54568C0.559904 2.08954 0.254395 2.82716 0.254395 3.59628ZM138.514 32.7963H9.33435V9.7963H138.514V32.7963Z" fill="white"/>
</svg>