<svg xmlns:xlink="http://www.w3.org/1999/xlink" xmlns="http://www.w3.org/2000/svg" width="239" height="240" viewBox="0 0 239 240" fill="none">
<path d="M119.359 173.246C106.908 173.257 94.8376 168.95 85.2063 161.059C75.5751 153.167 68.9786 142.18 66.5412 129.969C64.1037 117.759 65.9763 105.081 71.8396 94.0965C77.703 83.1121 87.1943 74.5011 98.6957 69.731C110.197 64.9609 122.997 64.3271 134.913 67.9376C146.83 71.5481 157.125 79.1794 164.045 89.5309C170.965 99.8823 174.081 112.313 172.861 124.705C171.642 137.096 166.164 148.681 157.359 157.486C152.381 162.494 146.46 166.466 139.937 169.171C133.415 171.876 126.42 173.261 119.359 173.246ZM119.359 76.4957C110.852 76.4838 102.532 78.9957 95.4531 83.7134C88.3739 88.431 82.8531 95.1425 79.5894 102.999C76.3256 110.855 75.4655 119.503 77.1179 127.848C78.7703 136.193 82.8609 143.86 88.8721 149.88C94.8834 155.9 102.545 160.001 110.888 161.665C119.231 163.329 127.88 162.481 135.74 159.228C143.601 155.975 150.32 150.464 155.048 143.391C159.775 136.319 162.299 128.003 162.299 119.496C162.299 108.102 157.777 97.1737 149.726 89.1113C141.675 81.049 130.753 76.5116 119.359 76.4957Z" fill="white"/>
<path d="M66.7888 122.966H28.2988C27.3706 122.966 26.4803 122.597 25.8239 121.941C25.1676 121.284 24.7988 120.394 24.7988 119.466C24.7988 118.538 25.1676 117.647 25.8239 116.991C26.4803 116.335 27.3706 115.966 28.2988 115.966H66.7688C67.6971 115.966 68.5873 116.335 69.2437 116.991C69.9001 117.647 70.2688 118.538 70.2688 119.466C70.2688 120.394 69.9001 121.284 69.2437 121.941C68.5873 122.597 67.6971 122.966 66.7688 122.966H66.7888Z" fill="white"/>
<path d="M210.439 122.966H171.929C171.001 122.966 170.111 122.597 169.454 121.941C168.798 121.284 168.429 120.394 168.429 119.466C168.429 118.538 168.798 117.647 169.454 116.991C170.111 116.335 171.001 115.966 171.929 115.966H210.439C211.367 115.966 212.258 116.335 212.914 116.991C213.57 117.647 213.939 118.538 213.939 119.466C213.939 120.394 213.57 121.284 212.914 121.941C212.258 122.597 211.367 122.966 210.439 122.966Z" fill="white"/>
<path d="M223.109 134.766C220.081 134.766 217.121 133.868 214.603 132.186C212.085 130.503 210.123 128.112 208.964 125.315C207.805 122.517 207.502 119.439 208.093 116.469C208.684 113.499 210.142 110.771 212.283 108.63C214.424 106.489 217.152 105.031 220.122 104.44C223.092 103.849 226.17 104.152 228.968 105.311C231.765 106.47 234.156 108.432 235.839 110.95C237.521 113.468 238.419 116.428 238.419 119.456C238.414 123.515 236.799 127.406 233.929 130.276C231.059 133.146 227.168 134.76 223.109 134.766Z" fill="white"/>
<path d="M15.5991 134.766C12.571 134.766 9.61101 133.868 7.09329 132.186C4.57557 130.503 2.61324 128.112 1.45447 125.315C0.295688 122.517 -0.00749007 119.439 0.58325 116.469C1.17399 113.499 2.63211 110.771 4.77325 108.63C6.91439 106.489 9.64239 105.031 12.6122 104.44C15.5821 103.849 18.6604 104.152 21.4579 105.311C24.2555 106.47 26.6466 108.432 28.3289 110.95C30.0111 113.468 30.9091 116.428 30.9091 119.456C30.9038 123.515 29.2891 127.406 26.419 130.276C23.549 133.146 19.6579 134.76 15.5991 134.766Z" fill="white"/>
<path d="M55.9192 186.366C55.22 186.375 54.5342 186.174 53.9506 185.788C53.3671 185.403 52.9127 184.851 52.6465 184.205C52.3803 183.558 52.3145 182.846 52.4577 182.162C52.6008 181.477 52.9462 180.852 53.4492 180.366L79.7292 154.126C80.3877 153.489 81.2703 153.136 82.1864 153.144C83.1026 153.153 83.9788 153.52 84.6259 154.169C85.2731 154.817 85.6393 155.694 85.6455 156.611C85.6518 157.527 85.2975 158.409 84.6592 159.066L58.3792 185.306C58.0599 185.637 57.678 185.901 57.2556 186.083C56.8333 186.265 56.379 186.361 55.9192 186.366Z" fill="white"/>
<path d="M156.769 85.5359C156.08 85.5348 155.407 85.3298 154.835 84.9469C154.262 84.564 153.815 84.0202 153.551 83.384C153.287 82.7478 153.217 82.0476 153.35 81.3718C153.483 80.6959 153.814 80.0745 154.299 79.5859L171.749 62.1259C172.073 61.8015 172.459 61.5442 172.882 61.3687C173.306 61.1931 173.76 61.1028 174.219 61.1028C174.678 61.1028 175.132 61.1931 175.556 61.3687C175.98 61.5442 176.365 61.8015 176.689 62.1259C177.013 62.4502 177.271 62.8353 177.446 63.2591C177.622 63.6829 177.712 64.1372 177.712 64.5959C177.712 65.0546 177.622 65.5088 177.446 65.9326C177.271 66.3564 177.013 66.7415 176.689 67.0659L159.239 84.5159C158.582 85.1682 157.695 85.5349 156.769 85.5359Z" fill="white"/>
<path d="M45.9891 208.146C42.9607 208.145 40.0004 207.247 37.4827 205.564C34.9649 203.881 33.0029 201.489 31.8446 198.691C30.6864 195.893 30.384 192.814 30.9758 189.844C31.5675 186.874 33.0268 184.146 35.1691 182.006C38.0834 179.218 41.961 177.662 45.9941 177.662C50.0271 177.662 53.9047 179.218 56.8191 182.006C58.957 184.149 60.4122 186.877 61.0009 189.846C61.5895 192.816 61.2854 195.893 60.1267 198.69C58.9681 201.486 57.0069 203.877 54.4907 205.56C51.9745 207.243 49.0162 208.143 45.9891 208.146Z" fill="white"/>
<path d="M188.609 72.2958C183.5 72.2948 178.55 70.5224 174.602 67.2807C170.654 64.039 167.952 59.5285 166.956 54.5178C165.961 49.5071 166.734 44.3063 169.143 39.8017C171.553 35.297 175.45 31.7672 180.17 29.8138C184.89 27.8603 190.142 27.6041 195.03 29.0888C199.918 30.5735 204.14 33.7071 206.977 37.9559C209.813 42.2046 211.089 47.3054 210.586 52.3892C210.083 57.473 207.833 62.2251 204.219 65.8357C202.173 67.8907 199.74 69.5196 197.061 70.6284C194.381 71.7372 191.509 72.304 188.609 72.2958ZM188.609 37.9057C186.175 37.9027 183.794 38.6221 181.769 39.9728C179.744 41.3235 178.165 43.2448 177.232 45.4934C176.3 47.742 176.055 50.2167 176.53 52.6043C177.005 54.9919 178.177 57.1849 179.899 58.9057C182.243 61.1431 185.359 62.3915 188.599 62.3915C191.839 62.3915 194.955 61.1431 197.299 58.9057C199.02 57.1861 200.192 54.9949 200.667 52.6092C201.142 50.2235 200.9 47.7504 199.97 45.5027C199.039 43.2549 197.464 41.3334 195.442 39.9812C193.419 38.6289 191.042 37.9067 188.609 37.9057Z" fill="white"/>
<path d="M119.359 70.3456C118.435 70.3456 117.549 69.9792 116.895 69.3269C116.241 68.6746 115.872 67.7894 115.869 66.8655V28.4355C115.869 27.5073 116.238 26.6171 116.894 25.9607C117.551 25.3043 118.441 24.9355 119.369 24.9355C120.297 24.9355 121.188 25.3043 121.844 25.9607C122.5 26.6171 122.869 27.5073 122.869 28.4355V66.8655C122.869 67.3251 122.778 67.7801 122.601 68.2043C122.425 68.6285 122.166 69.0134 121.839 69.337C121.513 69.6605 121.126 69.9162 120.7 70.0894C120.274 70.2625 119.819 70.3495 119.359 70.3456Z" fill="white"/>
<path d="M119.299 199.826C118.373 199.826 117.486 199.458 116.831 198.804C116.177 198.149 115.809 197.261 115.809 196.336V171.766C115.809 170.838 116.178 169.947 116.834 169.291C117.491 168.635 118.381 168.266 119.309 168.266C120.237 168.266 121.128 168.635 121.784 169.291C122.44 169.947 122.809 170.838 122.809 171.766V196.336C122.809 196.796 122.718 197.251 122.542 197.676C122.365 198.101 122.106 198.486 121.78 198.811C121.454 199.135 121.067 199.392 120.641 199.566C120.215 199.74 119.759 199.829 119.299 199.826Z" fill="white"/>
<path d="M119.359 31.0258C116.329 31.0258 113.367 30.1265 110.848 28.442C108.329 26.7575 106.367 24.3635 105.21 21.5631C104.053 18.7626 103.752 15.6817 104.347 12.7105C104.942 9.73926 106.405 7.01141 108.551 4.87227C110.697 2.73314 113.43 1.27895 116.403 0.693869C119.376 0.108788 122.456 0.419144 125.253 1.58559C128.05 2.75204 130.437 4.72213 132.113 7.24642C133.79 9.77071 134.679 12.7356 134.669 15.7658C134.651 19.8159 133.03 23.6942 130.162 26.5534C127.293 29.4127 123.409 31.0205 119.359 31.0258Z" fill="white"/>
<path d="M183.219 186.906C182.293 186.912 181.402 186.552 180.739 185.906L154.059 159.126C153.456 158.462 153.131 157.592 153.153 156.695C153.174 155.799 153.54 154.945 154.174 154.311C154.808 153.676 155.662 153.311 156.559 153.289C157.455 153.268 158.326 153.593 158.989 154.196L185.689 180.976C186.187 181.464 186.528 182.089 186.668 182.772C186.809 183.455 186.742 184.164 186.476 184.808C186.211 185.453 185.759 186.003 185.179 186.39C184.599 186.776 183.916 186.98 183.219 186.976V186.906Z" fill="white"/>
<path d="M82.2288 85.9159C81.3061 85.9202 80.4187 85.561 79.7588 84.9159L62.2988 67.4459C61.9493 67.1282 61.668 66.7429 61.4717 66.3132C61.2755 65.8836 61.1685 65.4187 61.1572 64.9465C61.146 64.4743 61.2307 64.0047 61.4062 63.5662C61.5818 63.1278 61.8445 62.7295 62.1785 62.3955C62.5124 62.0615 62.9107 61.7988 63.3492 61.6233C63.7877 61.4478 64.2572 61.363 64.7294 61.3743C65.2016 61.3855 65.6666 61.4925 66.0962 61.6887C66.5258 61.885 66.9112 62.1664 67.2288 62.5159L84.6988 79.9659C85.1844 80.4545 85.5145 81.0759 85.6475 81.7518C85.7806 82.4277 85.7107 83.1278 85.4466 83.764C85.1825 84.4002 84.736 84.944 84.1634 85.3269C83.5908 85.7099 82.9177 85.9148 82.2288 85.9159Z" fill="white"/>
<path d="M192.719 208.146C190.708 208.153 188.716 207.759 186.858 206.988C185 206.217 183.315 205.085 181.899 203.656C179.031 200.783 177.42 196.89 177.42 192.831C177.42 188.772 179.031 184.878 181.899 182.006C184.815 179.22 188.692 177.666 192.724 177.666C196.756 177.666 200.634 179.22 203.549 182.006C205.687 184.149 207.142 186.877 207.731 189.847C208.32 192.816 208.015 195.893 206.857 198.69C205.698 201.486 203.737 203.877 201.221 205.56C198.705 207.243 195.746 208.143 192.719 208.146Z" fill="white"/>
<path d="M50.1091 72.2958C45.0005 72.2948 40.0503 70.5224 36.1021 67.2807C32.1538 64.039 29.4518 59.5285 28.4564 54.5178C27.461 49.5071 28.234 44.3063 30.6434 39.8017C33.0529 35.297 36.9498 31.7672 41.6701 29.8138C46.3905 27.8603 51.6421 27.6041 56.5302 29.0888C61.4183 30.5735 65.6403 33.7071 68.4768 37.9559C71.3134 42.2046 72.5889 47.3054 72.086 52.3892C71.5831 57.473 69.333 62.2251 65.7191 65.8357C63.6732 67.8907 61.2402 69.5196 58.5608 70.6284C55.8814 71.7372 53.0088 72.304 50.1091 72.2958ZM50.1091 37.9057C47.6756 37.9047 45.2965 38.6256 43.2729 39.977C41.2492 41.3285 39.6719 43.2499 38.7405 45.498C37.8091 47.7462 37.5655 50.2201 38.0405 52.6067C38.5156 54.9934 39.6878 57.1855 41.4091 58.9057C43.753 61.1431 46.8687 62.3915 50.1091 62.3915C53.3494 62.3915 56.4652 61.1431 58.8091 58.9057C60.5303 57.1855 61.7026 54.9934 62.1776 52.6067C62.6526 50.2201 62.409 47.7462 61.4777 45.498C60.5463 43.2499 58.969 41.3285 56.9453 39.977C54.9216 38.6256 52.5425 37.9047 50.1091 37.9057Z" fill="white"/>
<path d="M101.959 144.526C96.8088 141.976 93.7288 137.126 93.9588 131.876L95.2988 96.2859L119.359 89.0459L143.429 96.2859L144.789 131.876C144.989 137.126 141.909 141.976 136.789 144.526L119.389 153.146L101.959 144.526Z" fill="white"/>
<path d="M119.359 239.396C114.248 239.398 109.294 237.628 105.342 234.387C101.39 231.146 98.6836 226.635 97.6847 221.623C96.6859 216.61 97.4562 211.406 99.8642 206.898C102.272 202.39 106.169 198.856 110.891 196.899C115.612 194.942 120.866 194.683 125.758 196.166C130.649 197.649 134.875 200.782 137.715 205.031C140.555 209.281 141.833 214.383 141.333 219.47C140.832 224.556 138.583 229.312 134.969 232.926C132.924 234.983 130.491 236.614 127.812 237.725C125.133 238.835 122.259 239.403 119.359 239.396ZM119.359 204.996C116.925 204.995 114.546 205.716 112.523 207.067C110.499 208.419 108.922 210.34 107.99 212.588C107.059 214.836 106.815 217.31 107.29 219.697C107.765 222.084 108.938 224.276 110.659 225.996C113.003 228.233 116.118 229.482 119.359 229.482C122.599 229.482 125.715 228.233 128.059 225.996C129.775 224.274 130.943 222.082 131.415 219.697C131.888 217.312 131.643 214.841 130.713 212.594C129.782 210.348 128.207 208.428 126.187 207.076C124.166 205.723 121.79 205 119.359 204.996Z" fill="white"/>
</svg>