<svg xmlns:xlink="http://www.w3.org/1999/xlink" xmlns="http://www.w3.org/2000/svg" width="187" height="230" viewBox="0 0 187 230" fill="none">
<path d="M78.9852 120.696V175.826H94.7853L96.5653 167.826H107.735V158.956H104.785V149.686H107.735V141.766H104.785V132.486H107.735V120.686C114.644 117.42 120.236 111.9 123.589 105.033C126.942 98.1659 127.857 90.3619 126.184 82.9055C124.51 75.449 120.348 68.7847 114.382 64.0092C108.416 59.2337 101.002 56.6318 93.3602 56.6318C85.7184 56.6318 78.3043 59.2337 72.3383 64.0092C66.3723 68.7847 62.21 75.449 60.5367 82.9055C58.8633 90.3619 59.7785 98.1659 63.1317 105.033C66.4849 111.9 72.0762 117.42 78.9852 120.686V120.696ZM93.1853 68.1358C95.0772 68.1916 96.8737 68.979 98.1968 70.3325C99.5199 71.6859 100.266 73.4998 100.279 75.3925C100.292 77.2852 99.5707 79.1091 98.2663 80.4805C96.9618 81.852 95.1762 82.6641 93.2853 82.7458C91.3934 82.69 89.5968 81.9025 88.2737 80.549C86.9506 79.1956 86.204 77.3816 86.1911 75.489C86.1781 73.5963 86.8998 71.7724 88.2043 70.4009C89.5087 69.0295 91.2943 68.2175 93.1853 68.1358Z" fill="white"/>
<path d="M185.096 97.106L173.516 87.456L172.636 65.056L183.446 52.126L182.606 29.3959L93.3656 0.395935L4.11559 29.3959L3.2856 52.106L14.0756 65.106L13.2156 87.506L1.63558 97.1559L0.335592 132.836C-0.188984 146.386 3.09293 159.812 9.80929 171.592C16.5256 183.372 26.4078 193.036 38.3356 199.486L93.3356 229.426L148.336 199.486C160.256 193.027 170.133 183.363 176.848 171.584C183.563 159.806 186.85 146.384 186.336 132.836L185.096 97.106ZM93.3656 206.216L48.0956 181.566C39.4911 176.914 32.3612 169.945 27.5134 161.45C22.6655 152.954 20.2933 143.271 20.6656 133.496L21.6656 106.936L33.2056 97.316L34.7256 58.0259L23.9256 45.0259V44.356L93.3656 21.806L162.786 44.356V45.046L151.976 57.986L153.506 97.2759L165.046 106.896L166.046 133.476C166.404 143.242 164.022 152.914 159.169 161.397C154.316 169.88 147.186 176.835 138.586 181.476L93.3656 206.216Z" fill="white"/>
</svg>