<svg xmlns:xlink="http://www.w3.org/1999/xlink" xmlns="http://www.w3.org/2000/svg" width="219" height="224" viewBox="0 0 219 224" fill="none">
<path d="M35.6616 64.096C35.6603 68.5237 36.5314 72.9083 38.2249 76.9993C39.9184 81.0903 42.4012 84.8077 45.5316 87.9391C48.662 91.0704 52.3786 93.5543 56.4691 95.249C60.5597 96.9437 64.944 97.816 69.3717 97.816H153.782C162.396 97.8276 170.714 94.6671 177.147 88.9374C183.58 83.2078 187.679 75.3101 188.661 66.7514C189.642 58.1928 187.439 49.5722 182.47 42.5347C177.501 35.4972 170.115 30.5354 161.722 28.596C160.899 23.024 158.663 17.7554 155.228 13.2918C151.793 8.82824 147.272 5.31821 142.097 3.09585C136.921 0.873496 131.263 0.0128182 125.661 0.59573C120.059 1.17864 114.699 3.18575 110.092 6.42599C105.007 3.33729 99.2247 1.58401 93.2811 1.32913C87.3376 1.07425 81.4262 2.32607 76.0961 4.96817C70.766 7.61026 66.1903 11.5569 62.7943 16.4413C59.3983 21.3257 57.2921 26.9894 56.6716 32.906C50.4664 35.4282 45.1537 39.7424 41.4115 45.2978C37.6693 50.8532 35.6675 57.3977 35.6616 64.096Z" fill="white"/>
<path d="M39.1613 203.986H64.3313C63.842 206.278 63.8347 208.646 64.3098 210.941C64.785 213.236 65.7322 215.407 67.0913 217.316H36.4014C37.7605 215.407 38.7076 213.236 39.1827 210.941C39.6579 208.646 39.6506 206.278 39.1613 203.986Z" fill="white"/>
<path d="M84.0916 215.096H20.9716C19.8683 215.096 18.8102 215.534 18.03 216.314C17.2499 217.095 16.8115 218.153 16.8115 219.256C16.8115 220.36 17.2496 221.419 18.0294 222.201C18.8093 222.983 19.8673 223.423 20.9716 223.426H84.0916C85.1609 223.374 86.1691 222.912 86.9073 222.137C87.6456 221.361 88.0574 220.332 88.0574 219.261C88.0574 218.19 87.6456 217.161 86.9073 216.385C86.1691 215.61 85.1609 215.148 84.0916 215.096Z" fill="white"/>
<path d="M103.292 132.806H1.73184C1.51706 132.802 1.30363 132.841 1.10416 132.921C0.904686 133 0.723176 133.119 0.570345 133.27C0.417515 133.421 0.29645 133.601 0.214266 133.8C0.132083 133.998 0.090458 134.211 0.0918297 134.426V203.896C0.0944711 204.321 0.26528 204.728 0.566927 205.028C0.868575 205.328 1.27654 205.496 1.70182 205.496H103.292C103.717 205.496 104.125 205.328 104.427 205.028C104.728 204.728 104.899 204.321 104.902 203.896V134.426C104.903 134.214 104.862 134.003 104.782 133.807C104.702 133.61 104.584 133.432 104.434 133.281C104.284 133.131 104.106 133.011 103.91 132.929C103.714 132.848 103.504 132.806 103.292 132.806ZM98.2918 196.266H6.67179V138.706H98.2918V196.266Z" fill="white"/>
<path d="M45.8818 137.636V125.166C45.8871 120.961 47.5598 116.93 50.533 113.957C53.5061 110.984 57.5371 109.311 61.7418 109.306H89.1519C91.2736 109.306 93.3083 108.463 94.8086 106.963C96.3089 105.463 97.1519 103.428 97.1519 101.306V80.306H105.002V101.306C104.999 105.511 103.327 109.544 100.354 112.518C97.3799 115.492 93.3474 117.163 89.1418 117.166H61.7318C59.6101 117.166 57.5752 118.009 56.075 119.509C54.5747 121.009 53.7318 123.044 53.7318 125.166V137.636H45.8818Z" fill="white"/>
<path d="M47.4014 136.116H52.2213V125.116C52.2213 122.59 53.224 120.168 55.009 118.381C56.7941 116.594 59.2156 115.589 61.7413 115.586H89.1514C92.9538 115.583 96.5996 114.072 99.2883 111.383C101.977 108.694 103.489 105.048 103.491 101.246V81.806H98.6813V101.296C98.676 103.822 97.6702 106.243 95.8842 108.029C94.0981 109.815 91.6773 110.821 89.1514 110.826H61.7413C57.9389 110.829 54.2931 112.34 51.6044 115.029C48.9157 117.718 47.404 121.364 47.4014 125.166V136.116Z" fill="white"/>
<path d="M163.211 155.516V147.426C163.211 145.304 162.369 143.27 160.868 141.769C159.368 140.269 157.333 139.426 155.211 139.426H133.631C129.426 139.423 125.393 137.752 122.42 134.778C119.446 131.804 117.774 127.772 117.771 123.566V85.9561H125.621V123.596C125.621 125.718 126.464 127.753 127.965 129.253C129.465 130.753 131.5 131.596 133.621 131.596H155.201C159.407 131.591 163.443 133.255 166.422 136.223C169.401 139.191 171.081 143.221 171.091 147.426V155.476L163.211 155.516Z" fill="white"/>
<path d="M124.091 87.4759V123.596C124.094 126.123 125.099 128.545 126.885 130.332C128.672 132.118 131.095 133.123 133.621 133.126H155.201C158.997 133.129 162.637 134.635 165.324 137.315C168.012 139.995 169.528 143.63 169.541 147.426V153.956H164.731V147.426C164.726 144.9 163.72 142.479 161.934 140.693C160.148 138.907 157.727 137.901 155.201 137.896H133.621C129.819 137.893 126.173 136.382 123.484 133.693C120.796 131.004 119.284 127.358 119.281 123.556V87.4759H124.091Z" fill="white"/>
<path d="M214.401 206.606L209.791 205.606C210.045 205.365 210.243 205.073 210.372 204.748C210.502 204.424 210.559 204.075 210.541 203.726V155.126C210.541 153.026 208.411 151.526 206.311 151.526H181.311C181.516 152.691 181.62 153.873 181.621 155.056C181.622 155.771 181.582 156.485 181.501 157.196H204.611V202.616H131.331V157.196H184.961C184.885 156.485 184.848 155.771 184.851 155.056C184.849 153.873 184.95 152.692 185.151 151.526H129.151C128.659 151.487 128.164 151.551 127.699 151.715C127.233 151.88 126.808 152.14 126.449 152.479C126.091 152.819 125.808 153.23 125.619 153.686C125.43 154.142 125.339 154.633 125.351 155.126V203.736C125.333 204.095 125.394 204.453 125.531 204.785C125.668 205.117 125.876 205.414 126.141 205.656C126.141 205.656 123.501 206.216 121.501 206.656C119.501 207.096 117.691 207.946 117.691 210.036V210.706C117.691 212.816 120.881 215.146 122.971 215.146H212.971C215.081 215.146 218.261 212.816 218.261 210.706V210.036C218.201 207.896 216.501 207.066 214.401 206.606Z" fill="white"/>
<path d="M214.401 206.606L209.791 205.606H126.091L126.161 205.686C126.161 205.686 123.521 206.246 121.521 206.686C119.521 207.126 117.711 207.976 117.711 210.066V210.736C117.711 212.846 120.901 215.176 122.991 215.176H212.991C215.101 215.176 218.281 212.846 218.281 210.736V210.066C218.201 207.896 216.501 207.066 214.401 206.606Z" fill="white"/>
<path d="M152.162 172.606V193.596L157.792 197.496L163.432 193.596V172.606H152.162Z" fill="white"/>
<path d="M183.712 191.416V170.426L178.082 166.536L172.452 170.426V191.416H183.712Z" fill="white"/>
<path d="M36.7314 159.596V180.586L42.3715 184.476L48.0015 180.586V159.596H36.7314Z" fill="white"/>
<path d="M68.2814 178.396V157.406L62.6515 153.516L57.0215 157.406V178.396H68.2814Z" fill="white"/>
</svg>