<svg xmlns:xlink="http://www.w3.org/1999/xlink" xmlns="http://www.w3.org/2000/svg" width="175" height="207" viewBox="0 0 175 207" fill="none">
<path d="M132.813 0.526428H23.3632C17.4266 0.531724 11.7347 2.89236 7.53687 7.09015C3.33907 11.2879 0.97844 16.9799 0.973145 22.9164V165.306C0.981082 171.242 3.34257 176.933 7.53979 181.13C11.737 185.327 17.4274 187.689 23.3632 187.696H132.803C138.738 187.688 144.427 185.327 148.623 181.129C152.819 176.932 155.178 171.241 155.183 165.306V22.9164C155.178 16.9833 152.82 11.2944 148.626 7.09723C144.433 2.90001 138.746 0.537016 132.813 0.526428ZM145.363 165.306C145.358 168.641 144.031 171.838 141.673 174.196C139.315 176.554 136.118 177.881 132.783 177.886H23.3632C20.0266 177.884 16.8274 176.558 14.4672 174.2C12.1069 171.841 10.7784 168.643 10.7731 165.306V22.9164C10.7784 19.5799 12.1069 16.3817 14.4672 14.0233C16.8274 11.665 20.0266 10.3391 23.3632 10.3364H86.8431V6.64642H137.163V11.2064C139.565 12.0849 141.641 13.6781 143.111 15.7716C144.58 17.8652 145.373 20.3586 145.383 22.9164L145.363 165.306Z" fill="white"/>
<path d="M151.823 19.5364H148.273V29.3364H151.823C155.153 29.3523 158.341 30.6854 160.69 33.0445C163.04 35.4036 164.361 38.5968 164.363 41.9264V184.316C164.358 187.651 163.031 190.848 160.673 193.206C158.315 195.564 155.118 196.891 151.783 196.896H42.3632C39.0258 196.896 35.825 195.571 33.4642 193.212C31.1034 190.854 29.7758 187.654 29.7731 184.316V180.316H19.9731V184.316C19.9811 190.251 22.3429 195.941 26.5404 200.136C30.7379 204.332 36.4283 206.691 42.3632 206.696H151.803C157.736 206.689 163.424 204.328 167.619 200.133C171.815 195.937 174.175 190.25 174.183 184.316V41.9264C174.178 35.995 171.821 30.3077 167.63 26.1107C163.439 21.9138 157.754 19.5497 151.823 19.5364Z" fill="white"/>
<path d="M133.293 3.5964H22.7633C20.7424 3.59246 18.7405 3.9871 16.8723 4.75775C15.004 5.5284 13.3061 6.65992 11.8757 8.08755C10.4453 9.51518 9.31042 11.2109 8.53613 13.0776C7.76184 14.9444 7.36328 16.9455 7.36328 18.9664V31.5964H148.663V18.9664C148.663 14.89 147.044 10.9806 144.161 8.09817C141.279 5.21574 137.37 3.5964 133.293 3.5964ZM94.5933 21.9464C93.4275 21.9484 92.2873 21.6044 91.3172 20.9579C90.3471 20.3115 89.5906 19.3917 89.1436 18.315C88.6965 17.2384 88.579 16.0533 88.806 14.9098C89.0329 13.7663 89.5941 12.7159 90.4185 11.8915C91.2428 11.0672 92.2932 10.5061 93.4366 10.2791C94.5801 10.0522 95.7653 10.1696 96.8419 10.6167C97.9186 11.0637 98.8384 11.8202 99.4848 12.7903C100.131 13.7605 100.475 14.9006 100.473 16.0664C100.471 17.6251 99.8503 19.1191 98.7482 20.2213C97.646 21.3234 96.1519 21.9438 94.5933 21.9464ZM112.733 21.9464C111.567 21.9484 110.427 21.6044 109.457 20.9579C108.487 20.3115 107.731 19.3917 107.284 18.315C106.837 17.2384 106.719 16.0533 106.946 14.9098C107.173 13.7663 107.734 12.7159 108.558 11.8915C109.383 11.0672 110.433 10.5061 111.577 10.2791C112.72 10.0522 113.905 10.1696 114.982 10.6167C116.059 11.0637 116.978 11.8202 117.625 12.7903C118.271 13.7605 118.615 14.9006 118.613 16.0664C118.611 17.6251 117.99 19.1191 116.888 20.2213C115.786 21.3234 114.292 21.9438 112.733 21.9464ZM130.863 21.9464C129.697 21.9484 128.557 21.6044 127.587 20.9579C126.617 20.3115 125.861 19.3917 125.414 18.315C124.967 17.2384 124.849 16.0533 125.076 14.9098C125.303 13.7663 125.864 12.7159 126.688 11.8915C127.513 11.0672 128.563 10.5061 129.707 10.2791C130.85 10.0522 132.035 10.1696 133.112 10.6167C134.189 11.0637 135.108 11.8202 135.755 12.7903C136.401 13.7605 136.745 14.9006 136.743 16.0664C136.743 17.6259 136.124 19.1215 135.021 20.2242C133.918 21.3269 132.423 21.9464 130.863 21.9464Z" fill="white"/>
<path d="M94.5932 106.796C94.5913 110.059 93.6221 113.248 91.8083 115.96C89.9945 118.671 87.4175 120.785 84.4029 122.032C81.3884 123.28 78.0716 123.606 74.8718 122.969C71.672 122.332 68.733 120.761 66.426 118.454C64.119 116.147 62.5478 113.208 61.9108 110.008C61.2738 106.808 61.5997 103.491 62.8473 100.477C64.0949 97.4622 66.2083 94.8852 68.9201 93.0714C71.632 91.2576 74.8207 90.2884 78.0832 90.2864C80.2517 90.2851 82.3993 90.7113 84.4029 91.5405C86.4066 92.3697 88.2272 93.5858 89.7605 95.1192C91.2939 96.6525 92.51 98.4731 93.3392 100.477C94.1684 102.48 94.5946 104.628 94.5932 106.796Z" fill="white"/>
<path d="M78.0833 57.5864C68.3507 57.5983 58.84 60.4953 50.7535 65.9113C42.667 71.3273 36.3677 79.0192 32.6519 88.0146C28.936 97.01 27.9704 106.905 29.8772 116.449C31.7839 125.993 36.4774 134.758 43.3643 141.635C50.2513 148.512 59.0224 153.193 68.5692 155.086C78.1159 156.979 88.0097 156 96.9998 152.271C105.99 148.543 113.673 142.232 119.077 134.138C124.482 126.044 127.365 116.529 127.363 106.796C127.363 100.328 126.088 93.9234 123.611 87.9484C121.133 81.9734 117.502 76.5454 112.925 71.9749C108.348 67.4044 102.915 63.7811 96.9367 61.3122C90.9582 58.8433 84.5516 57.5772 78.0833 57.5864ZM105.583 114.466C104.968 116.685 104.077 118.818 102.933 120.816L107.693 127.136C105.199 130.77 102.052 133.909 98.4134 136.396L92.1034 131.656C90.099 132.79 87.9631 133.673 85.7434 134.286L84.6533 142.126C80.3157 142.953 75.861 142.953 71.5233 142.126L70.4134 134.306C68.2026 133.686 66.0741 132.803 64.0734 131.676L57.7434 136.416C54.1183 133.928 50.9798 130.796 48.4834 127.176L53.2234 120.816C52.0866 118.824 51.2031 116.698 50.5933 114.486L42.7834 113.366C42.3717 111.208 42.1674 109.014 42.1734 106.816C42.1694 104.612 42.3736 102.412 42.7834 100.246L50.5933 99.1564C51.1975 96.9337 52.0812 94.7967 53.2234 92.7964L48.4834 86.4664C50.977 82.8444 54.116 79.7123 57.7434 77.2264L64.0534 81.9464C66.06 80.8124 68.1952 79.9227 70.4134 79.2964L71.5233 71.5064C75.861 70.6798 80.3157 70.6798 84.6533 71.5064L85.7434 79.2964C87.9653 79.9118 90.1018 80.802 92.1034 81.9464L98.4134 77.2264C102.054 79.7107 105.201 82.8508 107.693 86.4864L102.953 92.7964C104.091 94.7987 104.975 96.9352 105.583 99.1564L113.393 100.246C113.811 102.411 114.019 104.612 114.013 106.816C114.021 109.015 113.813 111.209 113.393 113.366L105.583 114.466Z" fill="white"/>
</svg>