<svg xmlns:xlink="http://www.w3.org/1999/xlink" xmlns="http://www.w3.org/2000/svg" width="271" height="210" viewBox="0 0 271 210" fill="none">
<path d="M270.569 107.55C270.573 115.648 268.981 123.667 265.885 131.15C262.788 138.633 258.248 145.432 252.522 151.159C246.797 156.886 239.999 161.429 232.518 164.528C225.036 167.627 217.017 169.221 208.919 169.22H205.469V155.16H208.919C220.79 155.159 232.231 150.721 240.999 142.718C249.766 134.715 255.226 123.724 256.306 111.903C257.387 100.082 254.011 88.283 246.841 78.8228C239.67 69.3626 229.223 62.9238 217.549 60.7698L207.489 58.9398L206.129 48.7997C204.845 39.4283 200.215 30.8376 193.093 24.6126C185.971 18.3876 176.838 14.9484 167.379 14.9298C158.952 14.8942 150.745 17.6159 144.009 22.6798L135.569 28.9798L127.149 22.6798C120.413 17.6159 112.206 14.8942 103.779 14.9298C94.3204 14.9484 85.1874 18.3876 78.0655 24.6126C70.9436 30.8376 66.3134 39.4283 65.0293 48.7997L63.6692 58.9398L53.6093 60.7698C41.9357 62.9238 31.4885 69.3626 24.318 78.8228C17.1475 88.283 13.7714 100.082 14.8522 111.903C15.933 123.724 21.3928 134.715 30.1599 142.718C38.9271 150.721 50.3687 155.159 62.2393 155.16H65.6792V169.22H62.2393C46.8515 169.229 32.0166 163.483 20.6495 153.111C9.28231 142.74 2.20474 128.492 0.807531 113.168C-0.589683 97.8434 3.79444 82.5506 13.0984 70.2941C22.4024 58.0377 35.9536 49.7037 51.0893 46.9298C52.3188 37.7512 55.9252 29.0532 61.5511 21.6975C67.1769 14.3417 74.6271 8.58349 83.1634 4.99335C91.6997 1.40321 101.026 0.105735 110.218 1.22943C119.41 2.35313 128.149 5.8591 135.569 11.3998C142.991 5.8602 151.731 2.3552 160.924 1.232C170.117 0.108793 179.444 1.40631 187.982 4.99603C196.519 8.58576 203.971 14.3432 209.599 21.6983C215.227 29.0534 218.836 37.7509 220.069 46.9298C234.246 49.5367 247.061 57.0287 256.287 68.1035C265.513 79.1782 270.566 93.1356 270.569 107.55ZM182.919 108.25V120.52C184.626 119.556 186.554 119.049 188.514 119.049C190.475 119.049 192.402 119.556 194.109 120.52V108.25C194.107 106.768 193.517 105.348 192.469 104.3C191.421 103.252 190.001 102.662 188.519 102.66C187.036 102.66 185.613 103.248 184.563 104.296C183.513 105.344 182.922 106.766 182.919 108.25ZM147.629 108.25V155.25C149.334 154.28 151.263 153.77 153.224 153.77C155.186 153.77 157.114 154.28 158.819 155.25V108.25C158.817 106.766 158.225 105.344 157.176 104.296C156.126 103.248 154.703 102.66 153.219 102.66C151.738 102.662 150.317 103.252 149.27 104.3C148.222 105.348 147.632 106.768 147.629 108.25ZM177.389 135.67C177.776 133.81 178.624 132.078 179.853 130.63C181.083 129.183 182.656 128.067 184.428 127.384C186.201 126.701 188.116 126.474 189.999 126.723C191.882 126.972 193.673 127.689 195.207 128.808C196.741 129.928 197.97 131.414 198.782 133.131C199.593 134.849 199.961 136.742 199.852 138.638C199.743 140.534 199.16 142.373 198.157 143.986C197.154 145.598 195.762 146.934 194.109 147.87V204.17C194.107 205.652 193.517 207.072 192.469 208.12C191.421 209.167 190.001 209.757 188.519 209.76C187.037 209.76 185.615 209.171 184.567 208.122C183.518 207.074 182.929 205.652 182.929 204.17V147.86C180.834 146.677 179.168 144.859 178.172 142.668C177.177 140.477 176.902 138.027 177.389 135.67ZM183.529 138C183.529 138.989 183.822 139.955 184.372 140.778C184.921 141.6 185.702 142.241 186.616 142.619C187.529 142.998 188.535 143.097 189.505 142.904C190.475 142.711 191.365 142.235 192.065 141.535C192.764 140.836 193.24 139.945 193.433 138.975C193.626 138.005 193.527 137 193.149 136.086C192.77 135.173 192.129 134.392 191.307 133.842C190.485 133.293 189.518 133 188.529 133C187.203 133 185.931 133.527 184.994 134.464C184.056 135.402 183.529 136.674 183.529 138ZM77.0494 108.25V163.64C78.7528 162.67 80.6791 162.16 82.6392 162.16C84.5993 162.16 86.5258 162.67 88.2293 163.64V108.25C88.2293 106.767 87.6404 105.345 86.5921 104.297C85.5438 103.249 84.1218 102.66 82.6392 102.66C81.1566 102.66 79.7349 103.249 78.6866 104.297C77.6382 105.345 77.0494 106.767 77.0494 108.25ZM141.869 172.73C141.865 170.73 142.389 168.764 143.387 167.031C144.386 165.299 145.825 163.86 147.558 162.862C149.291 161.863 151.257 161.34 153.257 161.345C155.257 161.35 157.22 161.882 158.948 162.889C160.676 163.896 162.108 165.341 163.098 167.079C164.089 168.816 164.603 170.785 164.589 172.785C164.575 174.785 164.033 176.746 163.018 178.469C162.003 180.192 160.551 181.617 158.809 182.6V204.17C158.809 205.652 158.22 207.074 157.172 208.122C156.124 209.171 154.702 209.76 153.219 209.76C151.738 209.757 150.317 209.167 149.27 208.12C148.222 207.072 147.632 205.652 147.629 204.17V182.61C145.88 181.62 144.426 180.184 143.414 178.448C142.402 176.712 141.869 174.739 141.869 172.73ZM148.239 172.73C148.239 173.719 148.533 174.685 149.082 175.508C149.631 176.33 150.412 176.971 151.326 177.349C152.24 177.728 153.245 177.827 154.215 177.634C155.185 177.441 156.076 176.965 156.775 176.265C157.474 175.566 157.95 174.675 158.143 173.705C158.336 172.735 158.237 171.73 157.859 170.816C157.48 169.903 156.839 169.122 156.017 168.572C155.195 168.023 154.228 167.73 153.239 167.73C151.913 167.73 150.641 168.257 149.704 169.194C148.766 170.132 148.239 171.404 148.239 172.73ZM71.5193 178.78C71.9073 176.92 72.7553 175.188 73.9859 173.741C75.2165 172.294 76.7902 171.178 78.5633 170.497C80.3363 169.815 82.252 169.589 84.135 169.839C86.0181 170.089 87.8084 170.807 89.3421 171.928C90.8758 173.048 92.104 174.536 92.9143 176.254C93.7247 177.972 94.0912 179.866 93.9805 181.762C93.8698 183.658 93.2853 185.497 92.2806 187.109C91.2758 188.721 89.883 190.055 88.2293 190.99V204.17C88.2293 205.652 87.6404 207.074 86.5921 208.122C85.5438 209.171 84.1218 209.76 82.6392 209.76C81.1566 209.76 79.7349 209.171 78.6866 208.122C77.6382 207.074 77.0494 205.652 77.0494 204.17V190.99C74.9508 189.805 73.2836 187.983 72.2893 185.788C71.2951 183.593 71.0255 181.139 71.5193 178.78ZM77.6592 181.11C77.6592 182.099 77.9526 183.065 78.502 183.888C79.0514 184.71 79.8323 185.351 80.7459 185.729C81.6595 186.108 82.6649 186.207 83.6348 186.014C84.6047 185.821 85.4956 185.345 86.1949 184.645C86.8941 183.946 87.3703 183.055 87.5633 182.085C87.7562 181.115 87.657 180.11 87.2786 179.196C86.9002 178.283 86.2593 177.502 85.437 176.952C84.6148 176.403 83.6481 176.11 82.6592 176.11C81.3331 176.11 80.0615 176.637 79.1238 177.574C78.1861 178.512 77.6592 179.784 77.6592 181.11ZM112.339 108.25V134.14C114.045 133.176 115.97 132.669 117.929 132.669C119.888 132.669 121.814 133.176 123.519 134.14V108.25C123.519 106.767 122.93 105.345 121.882 104.297C120.834 103.249 119.412 102.66 117.929 102.66C116.447 102.66 115.025 103.249 113.977 104.297C112.928 105.345 112.339 106.767 112.339 108.25ZM106.579 151.62C106.575 149.62 107.099 147.654 108.097 145.921C109.096 144.189 110.535 142.75 112.268 141.752C114.001 140.753 115.967 140.23 117.967 140.235C119.967 140.24 121.93 140.772 123.658 141.779C125.386 142.786 126.818 144.231 127.808 145.969C128.799 147.706 129.313 149.675 129.299 151.675C129.285 153.675 128.743 155.636 127.728 157.359C126.713 159.082 125.261 160.507 123.519 161.49V204.17C123.519 205.652 122.93 207.074 121.882 208.122C120.834 209.171 119.412 209.76 117.929 209.76C117.195 209.76 116.468 209.615 115.79 209.334C115.112 209.053 114.496 208.642 113.977 208.122C113.458 207.603 113.046 206.987 112.765 206.309C112.484 205.631 112.339 204.904 112.339 204.17V161.49C110.591 160.502 109.137 159.068 108.125 157.333C107.113 155.599 106.58 153.628 106.579 151.62ZM112.949 151.62C112.949 152.609 113.243 153.575 113.792 154.398C114.341 155.22 115.122 155.861 116.036 156.239C116.95 156.618 117.955 156.717 118.925 156.524C119.895 156.331 120.786 155.855 121.485 155.155C122.184 154.456 122.66 153.565 122.853 152.595C123.046 151.625 122.947 150.62 122.569 149.706C122.19 148.793 121.549 148.012 120.727 147.462C119.905 146.913 118.938 146.62 117.949 146.62C116.63 146.63 115.369 147.162 114.439 148.098C113.51 149.035 112.989 150.301 112.989 151.62H112.949Z" fill="white"/>
</svg>