<?xml version="1.0" encoding="UTF-8"?><svg xmlns="http://www.w3.org/2000/svg" viewBox="0 0 292.36 61.06"><defs><style>.d{fill:#fff;}</style></defs><g id="a"/><g id="b"><g id="c"><g><g><polygon class="d" points="53.78 41.44 42.52 .21 42.46 0 31.96 0 20.65 41.44 11.08 .22 11.03 0 0 0 14.79 59.74 14.84 59.96 25.38 59.96 37.21 15.99 48.99 59.75 49.05 59.96 59.58 59.96 74.34 .35 74.42 0 63.39 0 53.78 41.44"/><path class="d" d="M80.28,2.2c-1.24,1.01-1.89,2.42-1.89,4.08s.65,3.08,1.89,4.08c1.15,.93,2.41,1.41,3.76,1.41s2.69-.48,3.82-1.42c1.2-1.01,1.83-2.41,1.83-4.07s-.63-3.06-1.83-4.07c-2.24-1.88-5.28-1.88-7.58-.01Z"/><rect class="d" x="79.18" y="16.22" width="9.72" height="43.74"/><path class="d" d="M118.85,15.11c-3.42,0-6.4,.64-8.84,1.89-1.06,.54-2.03,1.16-2.91,1.83v-2.61h-9.72V59.96h9.72v-26.85c0-2.69,.89-4.82,2.73-6.5,1.88-1.72,4.32-2.56,7.44-2.56,2.5,0,4.25,.64,5.35,1.96,1.17,1.41,1.74,3.27,1.74,5.68v28.28h9.72V30.1c0-4.86-1.47-8.63-4.37-11.2-2.84-2.51-6.49-3.79-10.86-3.79Z"/><path class="d" d="M231.18,24.04c3.22,0,5.52,.82,7.04,2.52,1.61,1.79,2.48,3.76,2.66,6.04l.13,1.56h9.77l-.2-1.87c-.34-3.27-1.38-6.23-3.08-8.82-1.71-2.6-3.99-4.67-6.79-6.15-2.8-1.47-6-2.21-9.54-2.21-4.19,0-7.95,.99-11.16,2.94-3.22,1.95-5.74,4.71-7.48,8.2-1.72,3.43-2.59,7.41-2.59,11.83s.87,8.4,2.59,11.83c1.75,3.49,4.26,6.25,7.48,8.21,3.21,1.95,6.97,2.94,11.16,2.94,3.53,0,6.76-.76,9.61-2.25,2.85-1.5,5.19-3.61,6.92-6.27,1.74-2.67,2.71-5.72,2.88-9.07l.09-1.78h-9.68l-.12,1.57c-.18,2.49-1.04,4.57-2.62,6.36-1.5,1.69-3.82,2.51-7.08,2.51-3.88,0-6.67-1.29-8.54-3.95-1.98-2.81-2.98-6.21-2.98-10.1s1-7.29,2.98-10.1c1.87-2.66,4.66-3.95,8.54-3.95Z"/><path class="d" d="M288,18.9c-2.84-2.51-6.49-3.79-10.86-3.79-3.42,0-6.39,.63-8.84,1.89-1.06,.54-2.04,1.16-2.91,1.83V0h-9.72V59.96h9.72v-26.85c0-2.69,.89-4.82,2.74-6.5,1.88-1.72,4.31-2.56,7.43-2.56,2.49,0,4.24,.64,5.34,1.96,1.16,1.4,1.74,3.31,1.74,5.68v28.28h9.72V30.1c0-4.86-1.47-8.63-4.37-11.2Z"/><polygon class="d" points="155.46 2.77 145.74 2.77 145.74 16.22 138.11 16.22 138.11 25.15 145.74 25.15 145.74 60.43 155.46 60.43 155.46 25.15 163.1 25.15 163.1 16.22 155.46 16.22 155.46 2.77"/></g><path class="d" d="M196.76,45.2l-.06,.24c-.39,1.6-1.41,3.15-3.04,4.59-1.57,1.4-3.96,2.1-7.1,2.1-2.44,0-4.54-.56-6.23-1.66-1.71-1.11-3.01-2.61-3.86-4.44-.67-1.41-1.09-2.95-1.26-4.59h31.8v-1.7c0-7.63-1.72-13.68-5.11-17.98-3.49-4.42-8.68-6.66-15.41-6.66s-11.61,2.09-15.4,6.2c-3.77,4.07-5.68,9.72-5.68,16.77,0,4.47,.86,8.47,2.55,11.9,1.73,3.51,4.25,6.26,7.5,8.18,3.23,1.92,7.04,2.89,11.35,2.89,5.13,0,9.42-1.4,12.75-4.15,3.29-2.72,5.57-6.29,6.76-10.62l.3-1.09h-9.86Zm-20.19-16.07c.97-1.55,2.32-2.8,4.03-3.71,3.44-1.84,8.34-1.84,11.63-.01,1.63,.91,2.86,2.11,3.73,3.66,.62,1.1,1.01,2.23,1.2,3.44h-21.89c.21-1.2,.63-2.31,1.3-3.38Z"/></g></g></g></svg>