<svg width="213" height="234" viewBox="0 0 213 234" fill="none" xmlns="http://www.w3.org/2000/svg">
<path d="M157.643 184.166L166.283 179.056L161.703 168.056L151.993 170.546C149.633 167.101 146.661 164.118 143.224 161.746L145.714 152.036L134.714 147.476L129.613 156.096C125.504 155.346 121.293 155.346 117.183 156.096L112.073 147.476L101.073 152.036L103.563 161.746C100.13 164.121 97.1524 167.095 94.7734 170.526L85.0735 168.056L80.5034 179.056L89.1134 184.166C88.3742 188.27 88.3742 192.472 89.1134 196.576L80.5034 201.696L85.0735 212.696L94.7935 210.206C97.1636 213.634 100.127 216.61 103.543 218.996L101.073 228.686L112.073 233.246L117.183 224.626C121.286 225.381 125.491 225.381 129.594 224.626L134.714 233.246L145.714 228.686L143.224 218.976C146.654 216.602 149.632 213.632 152.013 210.206L161.703 212.696L166.283 201.696L157.673 196.596C158.414 192.485 158.403 188.274 157.643 184.166ZM136.403 195.766C135.335 198.347 133.525 200.553 131.203 202.106C128.88 203.658 126.15 204.486 123.356 204.486C120.563 204.486 117.832 203.657 115.51 202.105C113.187 200.552 111.378 198.346 110.31 195.765C109.242 193.183 108.963 190.343 109.51 187.604C110.056 184.864 111.403 182.349 113.379 180.375C115.356 178.401 117.874 177.057 120.614 176.515C123.354 175.972 126.194 176.254 128.773 177.326C130.486 178.035 132.042 179.074 133.353 180.385C134.664 181.695 135.703 183.251 136.412 184.964C137.12 186.677 137.484 188.512 137.483 190.366C137.482 192.219 137.115 194.054 136.403 195.766Z" fill="white"/>
<path d="M200.653 120.696L205.433 114.326L198.733 107.646L192.363 112.416C189.59 110.611 186.509 109.33 183.273 108.636L182.143 100.756H172.673L171.553 108.626C168.315 109.317 165.231 110.594 162.453 112.396L156.083 107.636L149.393 114.316L154.163 120.676C152.373 123.461 151.093 126.542 150.383 129.776L142.533 130.906V140.366L150.403 141.496C151.105 144.726 152.379 147.804 154.163 150.586L149.403 156.956L156.113 163.656L162.473 158.876C165.25 160.67 168.325 161.954 171.553 162.666L172.693 170.516H182.143L183.273 162.646C186.507 161.948 189.59 160.675 192.373 158.886L198.733 163.646L205.443 156.956L200.663 150.586C202.461 147.808 203.745 144.729 204.453 141.496L212.303 140.376V130.896L204.443 129.776C203.739 126.545 202.455 123.469 200.653 120.696ZM190.543 135.696C190.543 138.295 189.772 140.836 188.328 142.997C186.884 145.159 184.831 146.843 182.429 147.837C180.028 148.831 177.385 149.091 174.836 148.583C172.287 148.075 169.946 146.823 168.108 144.984C166.271 143.145 165.02 140.803 164.515 138.254C164.009 135.704 164.27 133.062 165.266 130.661C166.262 128.26 167.948 126.208 170.11 124.766C172.273 123.323 174.814 122.554 177.413 122.556C180.889 122.556 184.222 123.934 186.683 126.388C189.145 128.841 190.533 132.171 190.543 135.646V135.696Z" fill="white"/>
<path d="M27.1934 210.456V125.386L39.6133 129.096V198.016H73.0433V210.456H27.1934Z" fill="white"/>
<path d="M160.523 94.3064V42.2365H141.753L132.483 29.7965H172.953V94.3064H160.523Z" fill="white"/>
<path d="M75.5531 149.146C35.3231 149.146 1.86314 116.416 0.973145 76.146C0.973145 76.146 0.973145 74.926 0.973145 74.526C1.20053 54.8838 9.16286 36.1234 23.1331 22.314C37.1032 8.50456 55.9547 0.759888 75.5981 0.759888C95.2416 0.759888 114.093 8.50456 128.063 22.314C142.033 36.1234 149.996 54.8838 150.223 74.526C150.223 74.866 150.223 76.146 150.223 76.146C149.233 116.416 115.773 149.146 75.5531 149.146ZM79.8431 135.356C87.3664 130.33 93.8819 123.94 99.0531 116.516C92.9116 114.091 86.4313 112.634 79.8431 112.196V135.356ZM52.0431 116.516C57.2176 123.932 63.7328 130.315 71.2531 135.336V112.196C64.6651 112.635 58.1849 114.093 52.0431 116.516ZM37.373 124.656C43.1156 129.077 49.5861 132.461 56.493 134.656C51.8404 130.36 47.7028 125.537 44.1631 120.286C41.81 121.598 39.5421 123.058 37.373 124.656ZM106.933 120.246C103.404 125.496 99.2762 130.319 94.6331 134.616C101.527 132.413 107.987 129.029 113.723 124.616C111.554 123.018 109.286 121.558 106.933 120.246ZM12.6431 78.8159C13.6681 93.9151 20.1096 108.137 30.7831 118.866C33.6318 116.648 36.64 114.642 39.7831 112.866C34.2226 102.326 31.0155 90.7056 30.3831 78.8059L12.6431 78.8159ZM111.363 112.876C114.508 114.65 117.516 116.655 120.363 118.876C131.039 108.148 137.481 93.9258 138.503 78.8259H120.803C120.157 90.7253 116.937 102.343 111.363 112.876ZM79.8431 103.576C88.0173 104.051 96.0515 105.911 103.603 109.076C108.591 99.7219 111.494 89.3987 112.113 78.8159H79.8431V103.576ZM38.983 78.8159C39.6116 89.397 42.5142 99.7182 47.493 109.076C55.0447 105.911 63.0789 104.051 71.2531 103.576V78.8159H38.983ZM138.453 70.276C137.428 55.1768 130.987 40.9551 120.313 30.226C117.466 32.4464 114.458 34.4519 111.313 36.226C116.872 46.7621 120.076 58.38 120.703 70.276H138.453ZM112.113 70.276C111.494 59.6933 108.591 49.37 103.603 40.016C96.0518 43.1819 88.0175 45.0417 79.8431 45.516V70.276H112.113ZM71.2531 70.276V45.516C63.0794 45.0441 55.0452 43.1877 47.493 40.026C42.5156 49.3807 39.613 59.6983 38.983 70.276H71.2531ZM30.3431 70.276C30.9741 58.3793 34.1813 46.7615 39.743 36.226C36.5979 34.4528 33.5895 32.4472 30.743 30.226C20.0695 40.9551 13.6282 55.1768 12.6031 70.276H30.3431ZM52.0431 32.5859C58.1849 35.0093 64.6651 36.4666 71.2531 36.906V13.756C63.7325 18.781 57.2174 25.1673 52.0431 32.5859ZM79.8431 36.906C86.4313 36.4606 92.911 34.9999 99.0531 32.5759C93.8792 25.1541 87.3641 18.7645 79.8431 13.736V36.906ZM37.373 24.4459C39.5419 26.0535 41.8098 27.5231 44.1631 28.8459C47.7023 23.5972 51.8363 18.7752 56.483 14.476C49.5841 16.6684 43.1181 20.0418 37.373 24.4459ZM94.6331 14.4459C99.276 18.7394 103.404 23.5585 106.933 28.8059C109.286 27.4817 111.553 26.0123 113.723 24.406C107.986 20.0137 101.525 16.6566 94.6331 14.486V14.4459Z" fill="white"/>
</svg>
