<svg width="272" height="266" viewBox="0 0 272 266" fill="none" xmlns="http://www.w3.org/2000/svg">
<path d="M75.7588 155.01C77.2686 159.946 79.3847 164.675 82.0588 169.09H62.6688C47.2785 169.099 32.4412 163.352 21.0724 152.978C9.70358 142.605 2.62511 128.354 1.2279 113.028C-0.169314 97.701 4.21575 82.4058 13.5214 70.1475C22.8271 57.8892 36.3806 49.5541 51.5188 46.7799C52.7529 37.6027 56.3624 28.9069 61.9899 21.5533C67.6173 14.1997 75.0677 8.44329 83.6035 4.8538C92.1393 1.26431 101.464 -0.0337611 110.656 1.08808C119.848 2.20992 128.587 5.71277 136.009 11.2499C143.431 5.71277 152.17 2.20992 161.362 1.08808C170.553 -0.0337611 179.878 1.26431 188.414 4.8538C196.95 8.44329 204.4 14.1997 210.028 21.5533C215.655 28.9069 219.265 37.6027 220.499 46.7799C235.638 49.5542 249.192 57.8901 258.498 70.1495C267.803 82.4088 272.188 97.7052 270.789 113.033C269.391 128.36 262.31 142.611 250.94 152.983C239.569 163.356 224.73 169.101 209.339 169.09H189.969C192.636 164.673 194.748 159.944 196.259 155.01H209.339C221.209 155.009 232.651 150.571 241.418 142.568C250.185 134.565 255.645 123.574 256.726 111.753C257.807 99.9316 254.431 88.1332 247.26 78.6729C240.09 69.2127 229.642 62.7739 217.969 60.6199L207.919 58.7899L206.559 48.6499C205.273 39.2794 200.642 30.6898 193.521 24.4651C186.399 18.2405 177.267 14.8007 167.809 14.7799C159.381 14.7582 151.176 17.4862 144.439 22.5499L136.009 28.8399L127.579 22.5499C120.833 17.48 112.617 14.7516 104.179 14.7799C94.7204 14.8007 85.5885 18.2405 78.467 24.4651C71.3456 30.6898 66.7148 39.2794 65.4288 48.6499L64.0788 58.7899L54.0188 60.6199C42.3461 62.7737 31.8995 69.2118 24.7291 78.671C17.5586 88.1301 14.1818 99.9274 15.2613 111.748C16.3408 123.569 21.7986 134.559 30.5639 142.563C39.3292 150.567 50.769 155.006 62.6388 155.01H75.7588ZM94.0988 183.55C92.1903 194.203 89.0735 204.603 84.8088 214.55L83.5688 217.45C85.7671 219.643 87.1367 222.531 87.4441 225.621C87.7516 228.711 86.9778 231.812 85.2548 234.396C83.5318 236.98 80.9661 238.886 77.9951 239.789C75.0241 240.693 71.8317 240.538 68.962 239.351C66.0923 238.165 63.7229 236.02 62.2577 233.282C60.7925 230.544 60.3222 227.382 60.927 224.336C61.5318 221.29 63.1741 218.549 65.5742 216.578C67.9742 214.607 70.9834 213.53 74.0888 213.53H74.4588L75.6988 210.63C80.6912 198.98 83.9719 186.669 85.4388 174.08C87.996 177.523 90.8977 180.696 94.0988 183.55ZM80.5688 227.02C80.5708 225.738 80.1924 224.484 79.4816 223.417C78.7708 222.35 77.7594 221.518 76.5755 221.026C75.3916 220.534 74.0884 220.404 72.8307 220.653C71.5731 220.902 70.4175 221.518 69.5103 222.424C68.603 223.33 67.9849 224.485 67.7341 225.742C67.4832 226.999 67.6109 228.303 68.1011 229.487C68.5913 230.672 69.4218 231.685 70.4877 232.397C71.5535 233.11 72.8068 233.49 74.0888 233.49C75.8006 233.485 77.4413 232.804 78.6545 231.597C79.8677 230.389 80.5556 228.752 80.5688 227.04V227.02ZM149.839 198.02C153.254 197.26 156.599 196.213 159.839 194.89L161.999 239.32C163.13 239.755 164.194 240.347 165.159 241.08C167.547 242.875 169.272 245.412 170.064 248.293C170.855 251.173 170.669 254.235 169.534 256.999C168.399 259.763 166.38 262.072 163.792 263.565C161.204 265.057 158.194 265.65 155.233 265.248C152.273 264.847 149.529 263.475 147.432 261.347C145.335 259.22 144.002 256.456 143.644 253.49C143.285 250.524 143.921 247.523 145.451 244.957C146.981 242.391 149.319 240.405 152.099 239.31L149.839 198.02ZM150.539 251.85C150.539 253.132 150.919 254.385 151.632 255.451C152.344 256.517 153.357 257.347 154.541 257.838C155.726 258.328 157.029 258.455 158.287 258.205C159.544 257.954 160.699 257.336 161.604 256.428C162.51 255.521 163.127 254.366 163.376 253.108C163.624 251.85 163.495 250.547 163.003 249.363C162.511 248.179 161.679 247.168 160.612 246.457C159.545 245.746 158.291 245.368 157.009 245.37C155.296 245.375 153.655 246.057 152.443 247.267C151.231 248.477 150.547 250.117 150.539 251.83V251.85ZM186.539 174.14C188.004 186.729 191.285 199.041 196.279 210.69L197.519 213.59H197.889C201.465 213.598 204.893 215.021 207.422 217.549C209.952 220.077 211.378 223.504 211.389 227.08C211.392 229.304 210.847 231.494 209.8 233.456C208.753 235.418 207.238 237.091 205.389 238.326C203.54 239.562 201.415 240.321 199.201 240.538C196.988 240.754 194.756 240.42 192.703 239.566C190.65 238.711 188.839 237.363 187.433 235.641C186.026 233.918 185.067 231.875 184.64 229.693C184.213 227.511 184.332 225.256 184.986 223.131C185.64 221.006 186.809 219.075 188.389 217.51L187.179 214.55C182.906 204.605 179.785 194.204 177.879 183.55C181.095 180.713 184.01 177.553 186.579 174.12L186.539 174.14ZM191.409 227.06C191.407 228.342 191.785 229.596 192.496 230.663C193.207 231.73 194.218 232.562 195.402 233.054C196.586 233.546 197.889 233.676 199.147 233.427C200.405 233.178 201.56 232.561 202.467 231.656C203.375 230.75 203.993 229.595 204.244 228.338C204.494 227.081 204.367 225.777 203.876 224.592C203.386 223.408 202.556 222.395 201.49 221.683C200.424 220.97 199.171 220.59 197.889 220.59C196.183 220.603 194.551 221.287 193.346 222.494C192.141 223.701 191.459 225.334 191.449 227.04L191.409 227.06ZM112.179 194.87C115.418 196.193 118.763 197.24 122.179 198L119.939 239.3C121.068 239.733 122.129 240.325 123.089 241.06C125.484 242.856 127.215 245.396 128.01 248.282C128.806 251.168 128.622 254.236 127.486 257.005C126.35 259.775 124.327 262.09 121.735 263.586C119.142 265.082 116.126 265.676 113.16 265.273C110.193 264.871 107.444 263.495 105.344 261.363C103.243 259.23 101.91 256.46 101.553 253.488C101.196 250.516 101.836 247.51 103.371 244.94C104.907 242.37 107.252 240.383 110.039 239.29L112.179 194.87ZM114.949 245.35C113.667 245.35 112.414 245.73 111.349 246.442C110.283 247.154 109.453 248.166 108.962 249.35C108.472 250.534 108.343 251.837 108.593 253.094C108.843 254.351 109.461 255.506 110.367 256.412C111.273 257.318 112.428 257.935 113.685 258.185C114.942 258.435 116.245 258.307 117.429 257.817C118.613 257.326 119.625 256.496 120.337 255.43C121.049 254.364 121.429 253.112 121.429 251.83C121.426 250.116 120.745 248.472 119.535 247.258C118.325 246.044 116.683 245.358 114.969 245.35H114.949ZM178.499 147.83C178.106 147.89 177.738 148.06 177.437 148.32C177.136 148.58 176.915 148.92 176.799 149.3C176.043 151.739 175.062 154.102 173.869 156.36C173.68 156.71 173.594 157.106 173.622 157.503C173.651 157.9 173.792 158.28 174.029 158.6L179.399 165.75C179.666 166.114 179.81 166.553 179.81 167.005C179.81 167.456 179.666 167.896 179.399 168.26C176.123 172.75 172.169 176.704 167.679 179.98C167.313 180.248 166.872 180.393 166.419 180.393C165.966 180.393 165.524 180.248 165.159 179.98L158.079 174.55C157.757 174.31 157.374 174.166 156.974 174.136C156.573 174.106 156.173 174.19 155.819 174.38C153.582 175.569 151.238 176.547 148.819 177.3C148.435 177.414 148.091 177.636 147.829 177.939C147.567 178.242 147.397 178.613 147.339 179.01L146.089 187.87C146.028 188.315 145.827 188.729 145.514 189.052C145.2 189.374 144.792 189.587 144.349 189.66C138.843 190.526 133.235 190.526 127.729 189.66C127.285 189.587 126.877 189.374 126.564 189.052C126.251 188.729 126.049 188.315 125.989 187.87L124.739 179.01C124.681 178.613 124.511 178.242 124.249 177.939C123.986 177.636 123.643 177.414 123.259 177.3C120.84 176.544 118.497 175.567 116.259 174.38C115.907 174.19 115.508 174.105 115.109 174.135C114.71 174.165 114.328 174.309 114.009 174.55L106.849 179.92C106.483 180.188 106.042 180.333 105.589 180.333C105.136 180.333 104.694 180.188 104.329 179.92C99.8495 176.646 95.903 172.699 92.6288 168.22C92.363 167.855 92.2198 167.416 92.2198 166.965C92.2198 166.514 92.363 166.074 92.6288 165.71L97.9788 158.55C98.2121 158.228 98.3499 157.848 98.3764 157.452C98.403 157.055 98.3171 156.66 98.1288 156.31C96.9361 154.073 95.9551 151.729 95.1988 149.31C95.0827 148.93 94.8616 148.59 94.5608 148.33C94.26 148.07 93.8919 147.9 93.4988 147.84L84.6488 146.55C84.2043 146.489 83.7906 146.289 83.4671 145.978C83.1437 145.667 82.9272 145.262 82.8488 144.82C81.9822 139.321 81.9822 133.719 82.8488 128.22C82.9253 127.776 83.1409 127.369 83.4645 127.056C83.7881 126.743 84.2029 126.541 84.6488 126.48L93.4988 125.23C93.8906 125.167 94.2571 124.996 94.5573 124.736C94.8575 124.476 95.0796 124.138 95.1988 123.76C95.9483 121.32 96.9259 118.956 98.1188 116.7C98.306 116.351 98.3904 115.956 98.3621 115.562C98.3337 115.167 98.1939 114.788 97.9588 114.47L92.5888 107.29C92.323 106.925 92.1798 106.486 92.1798 106.035C92.1798 105.584 92.323 105.144 92.5888 104.78C95.8711 100.308 99.8164 96.3622 104.289 93.0799C104.655 92.8147 105.096 92.672 105.549 92.672C106.001 92.672 106.442 92.8147 106.809 93.0799L113.959 98.4399C114.276 98.6773 114.655 98.8185 115.05 98.8469C115.446 98.8752 115.841 98.7895 116.189 98.5999C118.458 97.4074 120.831 96.4233 123.279 95.6599C123.659 95.5455 123.999 95.3246 124.257 95.0233C124.516 94.7221 124.683 94.3531 124.739 93.9599L125.989 85.1299C126.049 84.6847 126.251 84.2705 126.564 83.9483C126.877 83.6261 127.285 83.4129 127.729 83.3399C133.235 82.4733 138.843 82.4733 144.349 83.3399C144.792 83.4129 145.2 83.6261 145.514 83.9483C145.827 84.2705 146.028 84.6847 146.089 85.1299L147.339 93.9599C147.395 94.3543 147.564 94.7242 147.824 95.0255C148.085 95.3269 148.427 95.5471 148.809 95.6599C151.226 96.4234 153.569 97.404 155.809 98.5899C156.157 98.783 156.554 98.8716 156.951 98.845C157.348 98.8184 157.729 98.6777 158.049 98.4399L165.199 93.0799C165.563 92.8127 166.002 92.6685 166.454 92.6685C166.905 92.6685 167.345 92.8127 167.709 93.0799C172.205 96.3525 176.162 100.307 179.439 104.8C179.705 105.164 179.848 105.604 179.848 106.055C179.848 106.506 179.705 106.945 179.439 107.31L174.079 114.47C173.842 114.787 173.701 115.165 173.67 115.56C173.64 115.955 173.723 116.35 173.909 116.7C175.102 118.956 176.079 121.32 176.829 123.76C176.948 124.138 177.17 124.476 177.47 124.736C177.771 124.996 178.137 125.167 178.529 125.23L187.379 126.48C187.825 126.541 188.239 126.743 188.563 127.056C188.887 127.369 189.102 127.776 189.179 128.22C190.045 133.719 190.045 139.321 189.179 144.82C189.1 145.262 188.884 145.667 188.56 145.978C188.237 146.289 187.823 146.489 187.379 146.55L178.499 147.83ZM166.609 136.55C166.605 130.499 164.807 124.585 161.443 119.556C158.078 114.527 153.299 110.608 147.707 108.294C142.116 105.981 135.965 105.377 130.03 106.56C124.096 107.742 118.646 110.657 114.368 114.936C110.09 119.215 107.177 124.667 105.997 130.601C104.816 136.536 105.422 142.687 107.737 148.278C110.052 153.868 113.973 158.647 119.003 162.009C124.034 165.372 129.948 167.168 135.999 167.17C144.118 167.167 151.904 163.94 157.644 158.198C163.384 152.456 166.609 144.669 166.609 136.55ZM136.009 117.94C132.323 117.94 128.721 119.033 125.656 121.081C122.592 123.129 120.204 126.04 118.795 129.445C117.386 132.85 117.018 136.597 117.738 140.212C118.459 143.826 120.235 147.146 122.842 149.75C125.45 152.355 128.771 154.128 132.387 154.844C136.002 155.561 139.748 155.189 143.152 153.776C146.556 152.363 149.464 149.972 151.509 146.906C153.554 143.839 154.643 140.235 154.639 136.55C154.64 134.103 154.159 131.679 153.224 129.417C152.288 127.156 150.916 125.101 149.186 123.37C147.456 121.639 145.401 120.266 143.141 119.329C140.88 118.392 138.456 117.91 136.009 117.91V117.94Z" fill="white"/>
</svg>
